<svg width="32" height="32" viewBox="0 0 32 32" fill="none" xmlns="http://www.w3.org/2000/svg">
<path d="M26.6418 4.57097C23.6942 1.62331 19.775 0 15.6064 0C11.4378 0 7.51863 1.62331 4.57097 4.57097C1.62331 7.51863 0 11.4378 0 15.6064C0 19.775 1.62337 23.6941 4.57097 26.6418C7.51857 29.5896 11.4378 31.2128 15.6064 31.2128C19.775 31.2128 23.6942 29.5895 26.6418 26.6418C29.5895 23.6942 31.2128 19.775 31.2128 15.6064C31.2128 11.4378 29.5894 7.51869 26.6418 4.57097Z" fill="#33CC95"/>
<g clip-path="url(#clip0_35212_811)">
<path d="M16.0522 6.24263V25.8621" stroke="white" stroke-width="2" stroke-linecap="round" stroke-linejoin="round"/>
<path d="M20.5114 9.80981H13.8229C12.9951 9.80981 12.2012 10.1387 11.6159 10.724C11.0305 11.3094 10.7017 12.1033 10.7017 12.9311C10.7017 13.7589 11.0305 14.5528 11.6159 15.1382C12.2012 15.7235 12.9951 16.0524 13.8229 16.0524H18.2819C19.1097 16.0524 19.9036 16.3812 20.489 16.9666C21.0743 17.5519 21.4032 18.3458 21.4032 19.1737C21.4032 20.0015 21.0743 20.7954 20.489 21.3807C19.9036 21.9661 19.1097 22.2949 18.2819 22.2949H10.7017" stroke="white" stroke-width="2" stroke-linecap="round" stroke-linejoin="round"/>
</g>
<defs>
<clipPath id="clip0_35212_811">
<rect width="21.4031" height="21.4031" fill="white" transform="translate(5.35083 5.35083)"/>
</clipPath>
</defs>
</svg>
